<svg id="Group_35070" data-name="Group 35070" xmlns="http://www.w3.org/2000/svg" width="26.745" height="42.029" viewBox="0 0 26.745 42.029">
  <path id="icons8-student_1" d="M37.717,1.982a7.265,7.265,0,0,0-5.155,1.692A1.162,1.162,0,0,0,32,2.81a1.1,1.1,0,0,0-1.071-.058,2.436,2.436,0,0,0-1.04,1.636c-.654.1-2.1.416-2.263,1.284a1.065,1.065,0,0,0,.255,1.023,1.387,1.387,0,0,0,.927.331c-1.236,1.419-2.751,4.275-2.444,5.509a.872.872,0,0,0,.537.639A41.335,41.335,0,0,0,27,17.59a2.916,2.916,0,0,0-.625,3.228,3.226,3.226,0,0,0,1.661,1.86A3.06,3.06,0,0,0,29.381,23a2.619,2.619,0,0,0,.543-.063,9.819,9.819,0,0,0,5.015,5.922,4.977,4.977,0,0,1-.106.9c-.1,0-.192-.006-.281,0-.983.031-.973,1.457-.963,2.053a8.491,8.491,0,0,1-1.672.928l-.138.063a16.328,16.328,0,0,0-6.831,5.651,2.067,2.067,0,0,0-.366,1.643,3.077,3.077,0,0,0,1.676,1.667c.417.229,4.288,2.241,11.655,2.241S49.151,42,49.568,41.768A3.076,3.076,0,0,0,51.244,40.1a2.067,2.067,0,0,0-.366-1.643,16.327,16.327,0,0,0-6.835-5.652l-.136-.062a8.859,8.859,0,0,1-1.667-.915c0-.61.013-2.033-.972-2.067-.072,0-.181,0-.286.01a5.616,5.616,0,0,1-.118-.894,9.807,9.807,0,0,0,5.05-5.937,2.647,2.647,0,0,0,.542.062,3.063,3.063,0,0,0,1.35-.328,3.215,3.215,0,0,0,1.655-1.857,2.814,2.814,0,0,0-.766-3.349c.421-2.706.121-7.366-1.314-9.6a.887.887,0,0,0,.245-.362,1.1,1.1,0,0,0-.1-.869c-1.471-2.979-6.178-4.132-7.587-4.413A12.452,12.452,0,0,0,37.717,1.982Zm-.261.677a11.659,11.659,0,0,1,2.353.234c1.331.267,5.777,1.347,7.109,4.05a.5.5,0,0,1,.068.342.393.393,0,0,1-.226.189.339.339,0,0,0-.128.516c1.447,1.868,1.788,6.5,1.419,9.19a3.63,3.63,0,0,0-1.646,0,5.494,5.494,0,0,1-1.051-1.651c-.06-.141-.121-.281-.195-.428a1.569,1.569,0,0,0-.165-.5,12.9,12.9,0,0,1-1.074-3.091c-.5-2.01-.976-3.907-3.982-5.564a.339.339,0,1,0-.327.594c2.747,1.514,3.166,3.191,3.651,5.134A13.465,13.465,0,0,0,44.4,14.914a.875.875,0,0,1,.108.343.308.308,0,0,1-.076.263.716.716,0,0,1-.565.128c-3.476-.323-5.653-1.534-6.659-3.705-.157-.336-.3-.7-.455-1.091-.649-1.636-1.457-3.674-3.383-2.974a1.215,1.215,0,0,0-.766.9,13.885,13.885,0,0,1-2.135,5.21,6.49,6.49,0,0,0-1.248,3.143,3.782,3.782,0,0,0-1.565.093,42.711,42.711,0,0,1-.062-4.311.339.339,0,0,0-.328-.35.208.208,0,0,1-.237-.188c-.283-1.141,1.8-4.8,2.9-5.466.194-.045.323-.083.323-.083a.339.339,0,1,0-.2-.649c-.006,0-.14.042-.336.085l-.038.011c-.766.159-1.186.075-1.321-.059A.451.451,0,0,1,28.3,5.8c.054-.292.784-.576,1.545-.712a.339.339,0,0,0,.653-.12c0-.031,0-.064,0-.1a.33.33,0,0,0,.056-.177.334.334,0,0,0-.015-.079,1.908,1.908,0,0,1,.692-1.246.432.432,0,0,1,.437.04c.343.195.244.847.172,1.105a5.354,5.354,0,0,0-.4.682.339.339,0,1,0,.608.3,4.744,4.744,0,0,1,.383-.648A5.985,5.985,0,0,1,37.455,2.659Zm-3.433,5.76c.932-.054,1.434,1.015,2.095,2.681.15.38.3.773.471,1.127.97,2.091,2.965,3.409,5.938,3.928q-.124-.012-.249-.011c-.623-.02,1,.154.551.058.314.048.636.091.971.122a1.394,1.394,0,0,0,1.044-.277A6.454,6.454,0,0,0,45.965,17.7v.115a14.425,14.425,0,0,1-.113,2.271c-.078.559-.2,1.193-.38,1.937-.034.136-.068.271-.112.412a9.112,9.112,0,0,1-4.973,5.914,6.33,6.33,0,0,1-4.967-.019,9.117,9.117,0,0,1-4.944-5.9c-.042-.136-.077-.271-.109-.406-.186-.777-.308-1.393-.383-1.937a14.362,14.362,0,0,1-.113-2.276V17.58a5.484,5.484,0,0,1,1.167-3.233,14.477,14.477,0,0,0,2.225-5.437.533.533,0,0,1,.333-.4A1.522,1.522,0,0,1,34.022,8.419Zm13.217,9.342a2.982,2.982,0,0,1,.792.119c.045.02.091.039.138.064.786.408,1.04,1.453.646,2.664a2.569,2.569,0,0,1-1.31,1.457,2.267,2.267,0,0,1-1.4.224c.009-.034.021-.071.029-.106.172-.722.295-1.343.376-1.9a1.771,1.771,0,0,1,1.244-.61.339.339,0,0,0,0-.678,2.525,2.525,0,0,0-1.138.325c.034-.512.034-.974.03-1.508v0a2.982,2.982,0,0,1,.594-.051Zm-18.533,0a3.028,3.028,0,0,1,.487.049c0,.535,0,1,.03,1.511A2.52,2.52,0,0,0,28.088,19a.339.339,0,1,0,0,.678,1.769,1.769,0,0,1,1.24.61c.079.542.2,1.146.379,1.9.008.036.02.07.028.105a2.262,2.262,0,0,1-1.4-.22,2.579,2.579,0,0,1-1.316-1.461,2.2,2.2,0,0,1,.518-2.587,1.615,1.615,0,0,1,.269-.141,3.029,3.029,0,0,1,.9-.117Zm6.9,11.362a6.84,6.84,0,0,0,4.591.011,6.249,6.249,0,0,0,.105.7,5.331,5.331,0,0,0-2.007.6,1.623,1.623,0,0,0-.385.713,1.627,1.627,0,0,0-.387-.715,5.447,5.447,0,0,0-2.011-.6,5.415,5.415,0,0,0,.093-.71ZM34.573,30.44h.068a4.235,4.235,0,0,1,.424.023,6.208,6.208,0,0,1,2.03.5,6.005,6.005,0,0,1,.484,1.864.339.339,0,0,0,.67,0,6.114,6.114,0,0,1,.478-1.858,6.105,6.105,0,0,1,2.019-.5c.144-.011.406-.025.505-.026s.32.144.312,1.386a.661.661,0,0,0,.256.526,8.994,8.994,0,0,0,1.8,1.007l.136.062a15.614,15.614,0,0,1,6.545,5.4,1.442,1.442,0,0,1,.281,1.111c-.107.412-.508.784-1.346,1.244-.4.221-4.131,2.157-11.328,2.157s-10.927-1.936-11.329-2.157c-.836-.461-1.239-.833-1.346-1.244a1.441,1.441,0,0,1,.285-1.112,15.607,15.607,0,0,1,6.544-5.4l.136-.063a8.981,8.981,0,0,0,1.8-1,.664.664,0,0,0,.26-.53C34.255,30.584,34.479,30.443,34.573,30.44Zm3.366,3.371a.6.6,0,1,0,.587.613.6.6,0,0,0-.587-.613Zm-.015,3.618a.6.6,0,1,0,.6.6A.6.6,0,0,0,37.924,37.429Zm-.011,3.618a.6.6,0,1,0,.6.6A.6.6,0,0,0,37.913,41.047Z" transform="translate(-24.54 -1.98)" fill="#2bd4b2"/>
</svg>
