<svg xmlns="http://www.w3.org/2000/svg" width="16.373" height="14.551" viewBox="0 0 16.373 14.551">
  <path id="Icon_awesome-edit" data-name="Icon awesome-edit" d="M11.444,2.369l2.564,2.564a.278.278,0,0,1,0,.392L7.8,11.534l-2.638.293a.553.553,0,0,1-.611-.611l.293-2.638,6.208-6.208A.278.278,0,0,1,11.444,2.369Zm4.6-.651L14.662.331a1.112,1.112,0,0,0-1.569,0L12.087,1.337a.278.278,0,0,0,0,.392l2.564,2.564a.278.278,0,0,0,.392,0l1.006-1.006a1.112,1.112,0,0,0,0-1.569ZM10.916,9.845v2.894h-9.1v-9.1H8.352a.35.35,0,0,0,.242-.1L9.73,2.406a.341.341,0,0,0-.242-.583H1.364A1.365,1.365,0,0,0,0,3.188V13.194a1.365,1.365,0,0,0,1.364,1.364H11.37a1.365,1.365,0,0,0,1.364-1.364V8.708a.342.342,0,0,0-.583-.242L11.015,9.6A.35.35,0,0,0,10.916,9.845Z" transform="translate(0 -0.007)" fill="#313fc2"/>
</svg>
