<svg xmlns="http://www.w3.org/2000/svg" width="26.668" height="42.091" viewBox="0 0 26.668 42.091">
  <path id="icons8-student" d="M38.029,2A13.09,13.09,0,0,0,26.87,7.639a13.214,13.214,0,0,0-1.15,12.285,3.3,3.3,0,0,0-.06,2.625,3.547,3.547,0,0,0,2.191,1.942,5.637,5.637,0,0,0,.045,3.193,4.337,4.337,0,0,0-.351,2.333,2.121,2.121,0,0,0,.211.787,4.445,4.445,0,0,0-.345,2.333,2.047,2.047,0,0,0,.237.8,4.165,4.165,0,0,0-.46,1.792,2.991,2.991,0,0,0,.272,1.583,10.47,10.47,0,0,0-1.315,1.659,1.913,1.913,0,0,0-.339,1.523,2.843,2.843,0,0,0,1.547,1.548c.379.21,3.921,2.052,10.678,2.052s10.3-1.841,10.677-2.052a2.843,2.843,0,0,0,1.548-1.55,1.91,1.91,0,0,0-.341-1.52,10.4,10.4,0,0,0-1.319-1.663,2.96,2.96,0,0,0,.269-1.553,4.22,4.22,0,0,0-.463-1.819,2.373,2.373,0,0,0,.219-1.006,5.022,5.022,0,0,0-.345-2.159,4.215,4.215,0,0,0-.123-3.083A5.629,5.629,0,0,0,48.2,24.5,3.521,3.521,0,0,0,50.4,22.548a3.3,3.3,0,0,0-.038-2.588,13.163,13.163,0,0,0-1.126-12.3A13.139,13.139,0,0,0,38.029,2Zm0,.679A12.472,12.472,0,0,1,48.669,8.038a12.455,12.455,0,0,1,1.2,11.3,2.845,2.845,0,0,0-1.256-.518,2.632,2.632,0,0,0,.281-.367c.8-1.256.92-3.574.312-6.053a.339.339,0,1,0-.659.161c.565,2.305.479,4.423-.225,5.527a1.392,1.392,0,0,1-.9.676c-.024,0-.048.009-.083.013-.767.1-1.94-.853-2.35-2.255l-.013-.053a27.337,27.337,0,0,0-2.35-6.01.34.34,0,1,0-.6.318,27.12,27.12,0,0,1,2.27,5.759,3.969,3.969,0,0,1-2.945.485,7.408,7.408,0,0,1-6.138-5.639.681.681,0,0,0-.547-.477,2.474,2.474,0,0,0-2.05,1.1A8.474,8.474,0,0,0,31.1,15.9c-.37,1.871-.645,2.851-2.388,2.873a.818.818,0,0,1-.581-.447c-.637-1.078-.434-3.648.458-5.851a.339.339,0,1,0-.629-.255c-.978,2.416-1.157,5.189-.416,6.449.025.042.051.081.078.119a3.015,3.015,0,0,0-1.409.524A12.507,12.507,0,0,1,27.435,8.017,12.42,12.42,0,0,1,38.029,2.679Zm-3.536,8.88a.136.136,0,0,1,.07.017,8.066,8.066,0,0,0,6.7,6.115,5.066,5.066,0,0,0,3.263-.479,3.58,3.58,0,0,0,2.485,2.235c-.084.861-.168,1.635-.248,2.293a17.052,17.052,0,0,1-.413,2.373,8.178,8.178,0,0,1-1.656,2.845,11.376,11.376,0,0,1-2.063,1.878,9.032,9.032,0,0,1-2.546,1.226,7.451,7.451,0,0,1-2.045.335,7.37,7.37,0,0,1-2.061-.342,9.032,9.032,0,0,1-2.534-1.219,11.318,11.318,0,0,1-2.062-1.882,8.176,8.176,0,0,1-1.656-2.842,17.971,17.971,0,0,1-.41-2.373c-.082-.652-.167-1.431-.253-2.308,2.062-.179,2.376-1.746,2.7-3.4a7.931,7.931,0,0,1,1.382-3.6A2.1,2.1,0,0,1,34.493,11.559Zm-6.115,7.862q.074.768.148,1.429a2.982,2.982,0,0,0-.887-.455.34.34,0,0,0-.176.656,2.5,2.5,0,0,1,1.188.868c.114.877.221,1.54.324,2.006a2.671,2.671,0,0,1-.586-.012,2.824,2.824,0,0,1-2.1-1.626,2.562,2.562,0,0,1,.1-2.169C26.721,19.535,27.816,19.4,28.378,19.422Zm19.316,0c.615-.023,1.661.142,1.992.72a2.55,2.55,0,0,1,.084,2.145,2.8,2.8,0,0,1-2.1,1.63,2.712,2.712,0,0,1-.569.009c.1-.463.212-1.126.326-2.006a2.54,2.54,0,0,1,1.174-.868.34.34,0,0,0-.18-.656,2.937,2.937,0,0,0-.87.453Q47.619,20.184,47.694,19.423ZM29.166,24.588a8.927,8.927,0,0,0,1.6,2.687,1,1,0,0,1-.213.359,3.272,3.272,0,0,1-2-.159,4.872,4.872,0,0,1-.03-2.873c.077.005.152.016.229.016A3.438,3.438,0,0,0,29.166,24.588Zm17.738,0a3.572,3.572,0,0,0,.43.029c.068,0,.134-.011.2-.014a4.878,4.878,0,0,1-.038,2.871,3.282,3.282,0,0,1-2,.162h0v0a.727.727,0,0,1-.2-.349,8.93,8.93,0,0,0,1.6-2.7ZM31.253,27.824a11.9,11.9,0,0,0,1.8,1.569,9.7,9.7,0,0,0,2.468,1.222,2.772,2.772,0,0,1-2.071,2.772c-.118.047-.238.093-.358.139a10.387,10.387,0,0,0-1.016.43.329.329,0,0,0-.1.046c-.2.1-.483.257-.737.406a2.614,2.614,0,0,0-.219-.5,4.4,4.4,0,0,0,.042-3.04,4.42,4.42,0,0,0,.108-2.921C31.2,27.907,31.227,27.866,31.253,27.824Zm13.554.012a1.274,1.274,0,0,0,.07.109A4.381,4.381,0,0,0,45,30.884a4.654,4.654,0,0,0,.023,3.007,1.749,1.749,0,0,0-.19.525c-.23-.132-.461-.263-.7-.392h0L44.074,34a.338.338,0,0,0-.091-.042,10.732,10.732,0,0,0-1.02-.434c-.117-.045-.234-.09-.349-.136a2.775,2.775,0,0,1-2.076-2.765,9.678,9.678,0,0,0,2.481-1.23,11.936,11.936,0,0,0,1.789-1.556Zm2.834.324a3.779,3.779,0,0,1-.019,2.392l-.005,0a2.915,2.915,0,0,1-1.98.078h0v0a3.456,3.456,0,0,1-.163-2.291,2.776,2.776,0,0,0,.658.068h.088A4.523,4.523,0,0,0,47.641,28.159Zm-19.235,0a4.426,4.426,0,0,0,1.413.247h.1a2.79,2.79,0,0,0,.66-.068,3.47,3.47,0,0,1-.163,2.292,2.892,2.892,0,0,1-1.992-.08s-.007,0-.011-.007,0-.008-.009-.011-.012-.006-.017-.011-.008-.011-.015-.015A3.676,3.676,0,0,1,28.406,28.161Zm7.777,2.653a7.7,7.7,0,0,0,1.852.262,7.776,7.776,0,0,0,1.837-.257,3.322,3.322,0,0,0,2.087,3.03,4.752,4.752,0,0,1-7.862,0A3.316,3.316,0,0,0,36.183,30.815Zm11.564.43a5.155,5.155,0,0,1,.18,1.83c-.046.492-.163.594-.164.595l-.005,0-.009.005a2.7,2.7,0,0,1-2.069-.005,3.571,3.571,0,0,1-.109-2.331,2.588,2.588,0,0,0,.672.108c.056,0,.116,0,.178,0A3.952,3.952,0,0,0,47.747,31.244Zm-19.447,0a3.948,3.948,0,0,0,1.332.21c.063,0,.123,0,.179,0a2.543,2.543,0,0,0,.7-.115,3.572,3.572,0,0,1-.136,2.339,2.718,2.718,0,0,1-2.088,0c-.048-.034-.152-.2-.2-.611a4.032,4.032,0,0,1,.212-1.814Zm5.153,2.87a5.445,5.445,0,0,0,9.154,0l.113.043c.3.116.616.24.935.4a1.873,1.873,0,0,1-.351,2.712c-1.279,1-3.806,1.148-5.026-.168l0,0-.014-.015-.006,0a.346.346,0,0,0-.082-.055l0,0-.023-.009c-.008,0-.007,0-.01,0a.321.321,0,0,0-.377.111c-1.227,1.295-3.733,1.144-5.007.148a1.873,1.873,0,0,1-.351-2.713c.3-.15.619-.275.929-.393Zm14.415.251a4.132,4.132,0,0,1,.323,1.7,2.357,2.357,0,0,1-.105.741A17.121,17.121,0,0,0,45.459,34.8a1.6,1.6,0,0,1,.082-.435,2.981,2.981,0,0,0,1.11.186,3.727,3.727,0,0,0,1.217-.187Zm-19.69,0a3.641,3.641,0,0,0,1.222.194,2.925,2.925,0,0,0,1.1-.186,1.635,1.635,0,0,1,.136.407,17.1,17.1,0,0,0-2.666,2.03,2.379,2.379,0,0,1-.109-.771A4.013,4.013,0,0,1,28.178,34.367Zm3.229.73a2.425,2.425,0,0,0,.923,2.706,4.893,4.893,0,0,0,2.942.927,4.184,4.184,0,0,0,2.755-.934,4.182,4.182,0,0,0,2.751.932A4.891,4.891,0,0,0,43.72,37.8a2.424,2.424,0,0,0,.924-2.7c.1.059.2.115.3.176A16.265,16.265,0,0,1,47.9,37.563l.029.025a9.946,9.946,0,0,1,1.41,1.742,1.285,1.285,0,0,1,.262.99c-.094.364-.47.711-1.219,1.124-.366.2-3.764,1.969-10.349,1.969s-9.986-1.765-10.353-1.969c-.747-.413-1.123-.759-1.217-1.123a1.287,1.287,0,0,1,.258-.993,10.022,10.022,0,0,1,1.406-1.736.279.279,0,0,0,.03-.027,16.225,16.225,0,0,1,3.017-2.323Z" transform="translate(-24.715 -2)" fill="#56a4ff"/>
</svg>
