<svg xmlns="http://www.w3.org/2000/svg" width="34.313" height="34.313" viewBox="0 0 34.313 34.313">
  <path id="Icon_awesome-arrow-circle-right" data-name="Icon awesome-arrow-circle-right" d="M17.719.563A17.157,17.157,0,1,1,.563,17.719,17.154,17.154,0,0,1,17.719.563Zm-2,9.934,5.223,5.009H8.311a1.656,1.656,0,0,0-1.66,1.66v1.107a1.656,1.656,0,0,0,1.66,1.66H20.943L15.72,24.941a1.662,1.662,0,0,0-.028,2.373l.761.754a1.653,1.653,0,0,0,2.345,0l9.18-9.173a1.653,1.653,0,0,0,0-2.345L18.8,7.363a1.653,1.653,0,0,0-2.345,0l-.761.754a1.67,1.67,0,0,0,.028,2.38Z" transform="translate(-0.563 -0.563)" fill="#fff"/>
</svg>
