<svg xmlns="http://www.w3.org/2000/svg" width="29.29" height="42.09" viewBox="0 0 29.29 42.09">
  <path id="woman" d="M101.838,37.245v4.144a.7.7,0,0,1-1.4,0V37.245A5.834,5.834,0,0,0,94.6,31.407a4.307,4.307,0,0,1-3.706-2.081.7.7,0,0,1,1.2-.73A2.914,2.914,0,0,0,94.6,30,7.237,7.237,0,0,1,101.838,37.245Zm-11.7-5.432-2.5,1.937-4.254-3.293a4.3,4.3,0,0,0,1.608-3.029,9.384,9.384,0,0,0,12.028-9c0-.055,0-4.912,0-4.966a.7.7,0,0,0-.7-.657,2.887,2.887,0,0,1-1.831-.338,3.192,3.192,0,0,1-1.326-2.551.7.7,0,0,0-1.107-.577A22.608,22.608,0,0,1,82.1,13.283a.7.7,0,0,0,.1,1.4,23.081,23.081,0,0,0,4.971-1.218,24.052,24.052,0,0,0,4.759-2.353,3.962,3.962,0,0,0,3.683,3.117v4.2a7.98,7.98,0,1,1-15.959,0V13.5a.7.7,0,0,0-1.4,0v4.921A9.394,9.394,0,0,0,83.6,26.9v.185A2.925,2.925,0,0,1,80.668,30a7.237,7.237,0,0,0-2.589.477l-.453-.36a8.568,8.568,0,0,1-1.8-11.461,9.691,9.691,0,0,0,1.631-5.389v-3.8A8.077,8.077,0,0,1,85.528,1.4h4.209A8.076,8.076,0,0,1,97.8,9.47v3.8a9.642,9.642,0,0,0,1.623,5.378,8.569,8.569,0,0,1-.069,9.63.7.7,0,1,0,1.155.8,9.971,9.971,0,0,0,.08-11.206,8.244,8.244,0,0,1-1.387-4.6V9.47A9.481,9.481,0,0,0,89.737,0H85.528a9.481,9.481,0,0,0-9.47,9.471v3.8a8.292,8.292,0,0,1-1.4,4.612,9.969,9.969,0,0,0,2.045,13.3,7.221,7.221,0,0,0-3.28,6.063v4.144a.7.7,0,0,0,1.4,0V37.245a5.834,5.834,0,0,1,5.838-5.837,4.35,4.35,0,0,0,1.365-.219l5.171,4a.7.7,0,0,0,.859,0l2.931-2.269a.7.7,0,1,0-.859-1.109Z" transform="translate(-72.987 0)" fill="#2bd4b2"/>
</svg>
